# xmcd
#
# Track frame offsets: 
#        150
#        14758
#        28965
#        43805
#        60028
#        76286
#        93552
#        108570
#        126828
#        143627
#        160370
#        173212
#        189386
#        206840
#        222630
#        237541
#        255480
#        270559
#        290901
#        310728
#        329770
#        345805
#
# Disc length: 4798 seconds
#
# Revision: 0
# Processed by: cddbd v1.5.2PL0 Copyright (c) Steve Scherf et al.
# Submitted via: ExactAudioCopy v0.99pb4
#
DISCID=5212bc16
DTITLE=Various Artist - prevue promo 1162A-2
DYEAR=2005
DGENRE=pop
TTITLE0=Fountains Of Wayne  - Maureen 
TTITLE1=Hope Partlow  - Who We Are 
TTITLE2=Smokey Robinson  - My World 
TTITLE3=Crosby and Nash  - Lay Me Down 
TTITLE4=Beth Nielsen Chapman - Trying To Love You 
TTITLE5=Keith Urban - You'll Think Of Me 
TTITLE6=Tyler Hilton - How Love Should Be 
TTITLE7=Omnisoul - Waiting (Save Your Life)
TTITLE8=Ben Moody Feat.  Anastacia - Everything Burns(movie Fantastic 
TTITLE8=Four) 
TTITLE9=John Williams and The London Symphony Orchestra -  Battle Of The
TTITLE9=Heroesmovie Revenge of the Sith) 
TTITLE10=Jermaine Dupri - Gotta Getcha 
TTITLE11=50 Cent - Disco Inferno 
TTITLE12=Transglobal Underground - The Khaleegi Stomp 
TTITLE13=Jack Johnson - Good People
TTITLE14=Judy Collins - I Can't Cry Hard Enough
TTITLE15=The Mick Fleetwood Band - These Walls 
TTITLE16=Go-Betweens - Here Comes A City 
TTITLE17=John Scofield Feat.  John Mayer - I Don't Need No Doctor 
TTITLE18=Styx - I Don't Need No Doctor 
TTITLE19=Corrosion Of Conformity - Rise River Rise
TTITLE20=Garbage - Bleed Like Me
TTITLE21=30 Seconds To Mars - Attack 
EXTD=
EXTT0=
EXTT1=
EXTT2=
EXTT3=
EXTT4=
EXTT5=
EXTT6=
EXTT7=
EXTT8=
EXTT9=
EXTT10=
EXTT11=
EXTT12=
EXTT13=
EXTT14=
EXTT15=
EXTT16=
EXTT17=
EXTT18=
EXTT19=
EXTT20=
EXTT21=
PLAYORDER=
